<!-- icon666.com - MILLIONS OF FREE VECTOR ICONS --><svg id="Layer_1" viewBox="0 0 64 64" xmlns="http://www.w3.org/2000/svg" data-name="Layer 1"><path d="m47 44h7v-4.4a4.991 4.991 0 0 0 -4.58-4.98l-7.42-.62-1.49-5.94a8 8 0 0 0 -7.76-6.06h-9.5a8 8 0 0 0 -7.76 6.06l-1.49 5.94-4 1v9z" fill="#d98285" style="fill: rgb(68, 116, 238);"></path><circle cx="43" cy="44" fill="#63758c" r="4"></circle><circle cx="19" cy="44" fill="#63758c" r="4"></circle><path d="m20.027 28.6a4 4 0 0 1 3.745-2.6h8.456a4 4 0 0 1 3.745 2.6l2.027 5.4h-20z" fill="#e6eef3"></path><path d="m32 56v6l-5-3z" fill="#8197bf"></path><path d="m32 7.754a16.506 16.506 0 0 0 8 0v-5a16.506 16.506 0 0 1 -8 0z" fill="#7cb2f8"></path><path d="m43 49a5.009 5.009 0 0 0 4.9-4h6.1a1 1 0 0 0 1-1v-4.4a6.022 6.022 0 0 0 -5.5-5.976l-6.7-.561-1.317-5.246a8.984 8.984 0 0 0 -8.733-6.817h-9.5a8.984 8.984 0 0 0 -8.729 6.817l-1.345 5.358-3.418.855a1 1 0 0 0 -.758.97v9a1 1 0 0 0 1 1h4.1a5 5 0 0 0 9.8 0h14.2a5.009 5.009 0 0 0 4.9 4zm0-2a3 3 0 1 1 3-3 3 3 0 0 1 -3 3zm-24 0a3 3 0 1 1 3-3 3 3 0 0 1 -3 3zm0-8a5.009 5.009 0 0 0 -4.9 4h-3.1v-7.219l3.242-.811a1 1 0 0 0 .728-.727l1.49-5.94a6.989 6.989 0 0 1 6.79-5.303h9.5a6.989 6.989 0 0 1 6.79 5.3l1.49 5.94a1 1 0 0 0 .887.754l7.422.62a4.011 4.011 0 0 1 3.661 3.986v3.4h-5.1a5 5 0 0 0 -9.8 0h-14.2a5.009 5.009 0 0 0 -4.9-4z" fill="#000000"></path><path d="m38.822 34.57a1 1 0 0 0 .115-.921l-2.027-5.4a5.024 5.024 0 0 0 -4.682-3.249h-8.456a5.024 5.024 0 0 0 -4.682 3.245l-2.027 5.4a1 1 0 0 0 .937 1.355h20a1 1 0 0 0 .822-.43zm-10.822-1.57h-8.557l1.52-4.053a3.012 3.012 0 0 1 2.809-1.947h4.228zm2 0v-6h2.228a3.012 3.012 0 0 1 2.809 1.947l1.52 4.053z" fill="#000000"></path><path d="m33 12.02v-3.038a17.651 17.651 0 0 0 3 .262 17.5 17.5 0 0 0 4.242-.52 1 1 0 0 0 .758-.97v-5a1 1 0 0 0 -1.242-.97 15.568 15.568 0 0 1 -6.758.164v-.948h-2v11.02c-16.632.411-30 11.006-30 23.98 0 10.578 8.747 19.787 21.767 22.915l.466-1.944c-12.102-2.909-20.233-11.336-20.233-20.971 0-12.131 13.01-22 29-22s29 9.869 29 22c0 11.876-12.472 21.579-28 21.981v-1.981a1 1 0 0 0 -1.515-.857l-5 3a1 1 0 0 0 0 1.714l5 3a1 1 0 0 0 1.515-.857v-2.02c16.632-.411 30-11.006 30-23.98s-13.368-23.569-30-23.98zm0-8.054a17.571 17.571 0 0 0 6 .021v2.966a15.531 15.531 0 0 1 -6-.024zm-2 56.268-2.057-1.234 2.057-1.234z" fill="#000000"></path></svg>