<!-- icon666.com - MILLIONS OF FREE VECTOR ICONS --><svg version="1.1" id="Capa_1" xmlns="http://www.w3.org/2000/svg" xmlns:xlink="http://www.w3.org/1999/xlink" x="0px" y="0px" viewBox="0 0 480.001 480.001" style="enable-background:new 0 0 480.001 480.001;" xml:space="preserve"><linearGradient id="SVGID_1_" gradientUnits="userSpaceOnUse" x1="-26.8744" y1="557.8942" x2="-26.8744" y2="620.1642" gradientTransform="matrix(8 0 0 -8 454.9954 4941.0107)"><stop offset="0" style="stop-color:#006DF0"></stop><stop offset="1" style="stop-color:#00E7F0"></stop></linearGradient><path style="fill: rgb(68, 116, 238);" d="M439.857,7.289c-0.052-0.529-0.157-1.052-0.312-1.56c-0.15-0.522-0.357-1.026-0.616-1.504 c-0.12-0.216-0.136-0.456-0.272-0.664s-0.376-0.328-0.536-0.528c-0.343-0.425-0.729-0.814-1.152-1.16 c-0.771-0.639-1.664-1.115-2.624-1.4c-0.521-0.159-1.057-0.266-1.6-0.32c-0.245-0.063-0.494-0.114-0.744-0.152 c-0.242,0.036-0.483,0.084-0.72,0.144c-0.526,0.053-1.046,0.157-1.552,0.312c-0.522,0.15-1.026,0.357-1.504,0.616 c-0.216,0.12-0.456,0.136-0.664,0.272l-43.56,29.056L340.353,1.345c-2.686-1.79-6.186-1.79-8.872,0l-43.576,29.056l-43.528-29.04 c-2.688-1.794-6.192-1.794-8.88,0l-43.552,29.04L148.401,1.345c-2.688-1.794-6.192-1.794-8.88,0l-43.52,29.056L52.441,1.345 c-0.208-0.136-0.448-0.152-0.664-0.272c-0.478-0.259-0.982-0.466-1.504-0.616c-0.506-0.155-1.026-0.259-1.552-0.312 c-0.237-0.06-0.478-0.108-0.72-0.144c-0.253,0.038-0.504,0.088-0.752,0.152c-0.543,0.054-1.079,0.161-1.6,0.32 c-0.477,0.143-0.938,0.333-1.376,0.568c-0.443,0.222-0.861,0.491-1.248,0.8c-0.423,0.34-0.809,0.724-1.152,1.144 c-0.16,0.2-0.392,0.32-0.536,0.536c-0.102,0.219-0.193,0.443-0.272,0.672c-0.256,0.47-0.46,0.966-0.608,1.48 c-0.163,0.521-0.27,1.057-0.32,1.6c-0.058,0.24-0.104,0.483-0.136,0.728v464c0,4.418,3.582,8,8,8h384c4.418,0,8-3.582,8-8v-464 C439.965,7.762,439.917,7.524,439.857,7.289L439.857,7.289z M56.001,464.001V22.953l35.544,23.704c2.688,1.794,6.192,1.794,8.88,0 l43.576-29.056l43.544,29.04c2.688,1.794,6.192,1.794,8.88,0l43.512-29.04l43.536,29.04c2.686,1.79,6.186,1.79,8.872,0l43.568-29.04 l43.608,29.056c2.688,1.794,6.192,1.794,8.88,0l35.6-23.712v441.056H56.001z" fill="url(#SVGID_1_)"></path><g><linearGradient id="SVGID_2_" gradientUnits="userSpaceOnUse" x1="-27.8758" y1="557.8942" x2="-27.8758" y2="620.1642" gradientTransform="matrix(8 0 0 -8 454.9954 4941.0107)"><stop offset="0" style="stop-color:#006DF0"></stop><stop offset="1" style="stop-color:#00E7F0"></stop></linearGradient><path style="fill: rgb(68, 116, 238);" d="M336.001,75.865c-3.827-2.207-8.72-0.894-10.927,2.934c0,0.001-0.001,0.001-0.001,0.002 l-200,346.4c-2.234,3.812-0.956,8.713,2.856,10.947c3.812,2.234,8.713,0.956,10.947-2.856c0.018-0.03,0.035-0.061,0.053-0.092 l200-346.4c2.212-3.824,0.906-8.718-2.919-10.931C336.007,75.869,336.004,75.867,336.001,75.865L336.001,75.865z" fill="url(#SVGID_2_)"></path><linearGradient id="SVGID_3_" gradientUnits="userSpaceOnUse" x1="-31.8738" y1="557.8942" x2="-31.8738" y2="620.1642" gradientTransform="matrix(8 0 0 -8 454.9954 4941.0107)"><stop offset="0" style="stop-color:#006DF0"></stop><stop offset="1" style="stop-color:#00E7F0"></stop></linearGradient><path style="fill: rgb(68, 116, 238);" d="M172.001,192.497c8.478,4.918,18.103,7.512,27.904,7.52 c4.925-0.004,9.827-0.653,14.584-1.928c29.876-7.999,47.61-38.702,39.611-68.578c-7.999-29.876-38.702-47.61-68.578-39.611 s-47.61,38.702-39.611,68.578c3.842,14.349,13.227,26.583,26.09,34.011V192.497z M165.361,124.009 c5.277-9.208,14.021-15.921,24.28-18.64c3.392-0.91,6.888-1.372,10.4-1.376c22.091,0.03,39.975,17.964,39.945,40.055 s-17.964,39.975-40.055,39.945c-22.091-0.03-39.975-17.964-39.945-40.055c0.01-7.003,1.858-13.88,5.359-19.945L165.361,124.009z" fill="url(#SVGID_3_)"></path><linearGradient id="SVGID_4_" gradientUnits="userSpaceOnUse" x1="-23.8757" y1="557.8942" x2="-23.8757" y2="620.1642" gradientTransform="matrix(8 0 0 -8 454.9954 4941.0107)"><stop offset="0" style="stop-color:#006DF0"></stop><stop offset="1" style="stop-color:#00E7F0"></stop></linearGradient><path style="fill: rgb(68, 116, 238);" d="M292.001,319.505c-26.784-15.465-61.033-6.29-76.498,20.494 c-15.465,26.784-6.29,61.033,20.494,76.498c8.488,4.901,18.115,7.489,27.917,7.504c4.925-0.004,9.827-0.653,14.584-1.928 c29.87-8.019,47.584-38.735,39.564-68.605C314.215,339.143,304.842,326.928,292.001,319.505L292.001,319.505z M298.641,387.993 c-11.035,19.138-35.496,25.706-54.633,14.67c-19.138-11.035-25.706-35.496-14.67-54.633c5.307-9.203,14.057-15.917,24.319-18.661 c3.392-0.91,6.888-1.372,10.4-1.376c22.091,0.04,39.967,17.982,39.927,40.073c-0.013,6.997-1.861,13.868-5.359,19.927H298.641z" fill="url(#SVGID_4_)"></path></g></svg>